<svg width="26" height="19" viewBox="0 0 26 19" fill="none" xmlns="http://www.w3.org/2000/svg">
<path d="M10.1172 10.1641L2.53906 17.7422C2.35677 17.9245 2.13542 18.0156 1.875 18.0156C1.61458 18.0156 1.39323 17.9245 1.21094 17.7422L0.3125 16.8828C0.130208 16.7005 0.0390625 16.4792 0.0390625 16.2188C0.0390625 15.9583 0.130208 15.737 0.3125 15.5547L6.32812 9.5L0.3125 3.44531C0.130208 3.26302 0.0390625 3.04167 0.0390625 2.78125C0.0390625 2.52083 0.130208 2.29948 0.3125 2.11719L1.21094 1.25781C1.39323 1.07552 1.61458 0.984375 1.875 0.984375C2.13542 0.984375 2.35677 1.07552 2.53906 1.25781L10.1172 8.83594C10.2995 9.01823 10.3906 9.23958 10.3906 9.5C10.3906 9.76042 10.2995 9.98177 10.1172 10.1641ZM25.0391 17.3125C25.0391 17.5729 24.9479 17.7943 24.7656 17.9766C24.5833 18.1589 24.362 18.25 24.1016 18.25H12.2266C11.9661 18.25 11.7448 18.1589 11.5625 17.9766C11.3802 17.7943 11.2891 17.5729 11.2891 17.3125V16.0625C11.2891 15.8021 11.3802 15.5807 11.5625 15.3984C11.7448 15.2161 11.9661 15.125 12.2266 15.125H24.1016C24.362 15.125 24.5833 15.2161 24.7656 15.3984C24.9479 15.5807 25.0391 15.8021 25.0391 16.0625V17.3125Z" fill="white"/>
</svg>
