<svg width="28" height="22" viewBox="0 0 28 22" fill="none" xmlns="http://www.w3.org/2000/svg">
<path d="M13.1719 5.9375C13.2969 5.875 13.4219 5.84375 13.5469 5.84375C13.6719 5.84375 13.7969 5.875 13.9219 5.9375L22.5469 13.0625V20.75C22.5469 20.9688 22.4688 21.1406 22.3125 21.2656C22.1875 21.4219 22.0156 21.5 21.7969 21.5H16.5469C16.3281 21.5 16.1406 21.4219 15.9844 21.2656C15.8594 21.1094 15.7969 20.9375 15.7969 20.75V16.25C15.7969 16.125 15.7656 16 15.7031 15.875C15.6406 15.75 15.5469 15.6562 15.4219 15.5938C15.2969 15.5312 15.1719 15.5 15.0469 15.5H12.0469C11.8281 15.5 11.6406 15.5781 11.4844 15.7344C11.3594 15.8594 11.2969 16.0312 11.2969 16.25V20.75C11.2969 20.9375 11.2188 21.1094 11.0625 21.2656C10.9375 21.4219 10.7656 21.5 10.5469 21.5H5.29688C5.07812 21.5 4.89062 21.4219 4.73438 21.2656C4.60938 21.1406 4.54688 20.9688 4.54688 20.75V13.0625L13.1719 5.9375ZM26.8594 10.7656C26.9844 10.8906 27.0469 11.0469 27.0469 11.2344C27.0469 11.3594 27 11.4688 26.9062 11.5625L25.7344 13.0156C25.6094 13.1719 25.4688 13.25 25.3125 13.25C25.1562 13.25 25.0312 13.2031 24.9375 13.1094L13.9219 4.01562C13.7969 3.95313 13.6719 3.92188 13.5469 3.92188C13.4219 3.92188 13.2969 3.95313 13.1719 4.01562L2.15625 13.1094C2.0625 13.2031 1.95312 13.25 1.82812 13.25C1.64062 13.25 1.48438 13.1719 1.35938 13.0156L0.1875 11.5625C0.09375 11.4688 0.046875 11.3594 0.046875 11.2344C0.046875 11.0469 0.109375 10.8906 0.234375 10.7656L12.0938 1.01562C12.5312 0.671875 13.0156 0.5 13.5469 0.5C14.0781 0.5 14.5469 0.671875 14.9531 1.01562L19.1719 4.48438V1.0625C19.1719 0.90625 19.2188 0.78125 19.3125 0.6875C19.4375 0.5625 19.5781 0.5 19.7344 0.5H22.3594C22.5156 0.5 22.6406 0.5625 22.7344 0.6875C22.8594 0.78125 22.9219 0.90625 22.9219 1.0625V7.57812L26.8594 10.7656Z" fill="#67E813"/>
</svg>
