<svg width="13" height="13" viewBox="0 0 13 13" fill="none" xmlns="http://www.w3.org/2000/svg">
<path d="M2.73438 13H0.191406V4.82422H2.73438V13ZM1.47656 3.70312C1.07552 3.70312 0.729167 3.55729 0.4375 3.26562C0.145833 2.97396 0 2.6276 0 2.22656C0 1.82552 0.145833 1.47917 0.4375 1.1875C0.729167 0.895833 1.07552 0.75 1.47656 0.75C1.73177 0.75 1.96875 0.813802 2.1875 0.941406C2.42448 1.06901 2.60677 1.2513 2.73438 1.48828C2.88021 1.70703 2.95312 1.95312 2.95312 2.22656C2.95312 2.48177 2.88021 2.72786 2.73438 2.96484C2.60677 3.18359 2.42448 3.36589 2.1875 3.51172C1.96875 3.63932 1.73177 3.70312 1.47656 3.70312ZM12.25 13H9.70703V9.00781C9.70703 8.69792 9.69792 8.45182 9.67969 8.26953C9.66146 8.06901 9.61589 7.85026 9.54297 7.61328C9.47005 7.35807 9.33333 7.16667 9.13281 7.03906C8.95052 6.91146 8.70443 6.84766 8.39453 6.84766C7.79297 6.84766 7.38281 7.03906 7.16406 7.42188C6.96354 7.80469 6.86328 8.3151 6.86328 8.95312V13H4.32031V4.82422H6.78125V5.94531H6.80859C6.99089 5.58073 7.29167 5.27083 7.71094 5.01562C8.13021 4.74219 8.63151 4.60547 9.21484 4.60547C9.83464 4.60547 10.3451 4.70573 10.7461 4.90625C11.1654 5.08854 11.4753 5.37109 11.6758 5.75391C11.8945 6.11849 12.0404 6.51953 12.1133 6.95703C12.2044 7.39453 12.25 7.91406 12.25 8.51562V13Z" fill="#67E813"/>
</svg>
