<svg width="54" height="52" viewBox="0 0 54 52" fill="none" xmlns="http://www.w3.org/2000/svg">
<path d="M37.7102 52C37.5153 52 37.3233 51.9525 37.1476 51.8632L0.696662 33.3259C0.383825 33.1668 0.147825 32.8793 0.0517788 32.5387C-0.0470118 32.1982 0.00238352 31.8269 0.180755 31.5227L4.06926 24.9323C3.73996 24.9239 3.4381 24.8653 3.16917 24.7537L2.6368 24.5304L3.14173 24.2512C3.52317 24.0391 3.85796 23.7962 4.19275 23.4892C4.4754 23.2296 4.75531 22.9421 5.04893 22.6015C5.30963 22.3057 5.56758 21.9902 5.81456 21.686L5.85298 21.6385C6.0533 21.3901 6.25363 21.1389 6.45395 20.8821L8.4133 17.5576C8.45446 17.4906 8.49563 17.4208 8.53679 17.3538C8.5066 17.3678 8.47916 17.3845 8.44897 17.3985C8.33372 17.4599 8.21572 17.5185 8.09772 17.5771C7.87544 17.686 7.57084 17.8311 7.23879 17.9567L6.55823 18.2163L6.90126 17.5632C7.03298 17.3147 7.18391 17.0607 7.39795 16.7425C7.57358 16.4829 7.7547 16.2149 7.96874 15.9693C8.33098 15.545 8.77004 15.0509 9.27223 14.6239C10.1202 13.8479 11.1355 13.1696 12.3622 12.5583L12.439 12.522C12.6942 12.402 12.9494 12.2819 13.2101 12.1731C13.5038 12.0586 13.7919 11.9525 14.0828 11.8493C14.4642 11.7264 14.8374 11.6176 15.2024 11.5311C16.6678 10.8863 18.2073 10.4927 19.7824 10.3559C19.7824 10.0237 19.8071 9.67202 19.8538 9.29239C19.991 8.27913 20.2874 7.2575 20.7374 6.25262C21.1984 5.23657 21.772 4.34054 22.4498 3.58688C22.845 3.15143 23.2374 2.79693 23.6435 2.49826C24.1622 2.12421 24.6287 1.88137 25.1062 1.73064L25.7044 1.54361L25.4382 2.11584C25.2873 2.43405 25.1418 2.7411 24.9991 3.03978C24.8976 3.25471 24.7961 3.46406 24.7 3.67341C25.3037 3.07327 25.9404 2.515 26.6017 2.0014L28.8492 0.262387C29.066 0.0949058 29.3377 0 29.6121 0C29.8042 0 29.999 0.0474529 30.1719 0.133985C30.6028 0.35171 30.8717 0.792743 30.8717 1.28123V6.33077L32.5237 2.79135C32.7322 2.34752 33.1768 2.06001 33.6598 2.06001C33.7531 2.06001 33.8464 2.07118 33.9369 2.09072C34.516 2.2247 34.9194 2.73831 34.9194 3.34124V12.9546L40.4516 16.695C40.6766 16.8486 40.8523 17.0747 40.9428 17.3343L42.7512 22.5429L52.4382 26.1493C53.2505 26.4508 53.8377 27.1821 53.9695 28.053C54.1012 28.9239 53.7554 29.7976 53.0694 30.3364L47.227 34.9086C45.1195 36.5583 42.4905 37.4655 39.8205 37.4655C39.1838 37.4655 38.5417 37.4124 37.916 37.3119L36.9089 37.1472C36.8952 37.1445 36.8842 37.1445 36.8732 37.1445C36.8293 37.1445 36.7881 37.164 36.7525 37.2003C36.7442 37.2087 36.736 37.217 36.7278 37.231L38.8463 40.7704C39.4473 41.7725 39.8726 42.8779 40.1031 44.0195C40.1388 43.866 40.169 43.7153 40.1992 43.5618C40.3309 42.8444 40.3995 42.0377 40.4214 40.9491L40.4406 40.0447L40.9264 40.8011C41.4368 41.5994 41.7826 42.5625 41.9252 43.5897C41.9884 44.0614 42.0076 44.575 41.9801 45.1137C41.9582 45.3733 41.9362 45.6274 41.8951 45.8842C41.8621 46.1103 41.81 46.3391 41.7633 46.5569L41.7469 46.6295C41.4944 47.626 41.08 48.5611 40.512 49.4208C40.2266 49.8479 39.911 50.247 39.5735 50.6071C39.3786 50.8109 39.2003 50.984 39.0219 51.1347C38.967 51.1821 38.9094 51.2268 38.8518 51.2743C38.8518 51.2743 38.7996 51.3664 38.7722 51.4082C38.5444 51.7767 38.1465 52 37.7102 52ZM37.1778 49.0161C37.8419 47.4641 37.9681 45.7251 37.5373 44.0893C37.3973 43.8688 37.2492 43.6483 37.0927 43.4334C36.4094 42.4955 35.6521 41.6692 34.7794 40.91L34.612 40.7593L34.4528 40.6281L34.1126 40.3433C34.0302 40.2819 33.9397 40.2094 33.8491 40.1368C33.7119 40.0279 33.572 39.9163 33.4265 39.813L33.0615 39.5394L32.6993 39.2854L32.5127 39.1486L32.3343 39.0286L31.9556 38.769C31.5303 38.4787 31.1022 38.1996 30.6467 37.9065C30.0429 37.5157 29.4173 37.1137 28.7889 36.6615L28.111 36.1759L28.937 36.1535C29.0056 36.1507 29.0742 36.1507 29.1428 36.1507C29.3788 36.1507 29.6368 36.1619 29.9496 36.1842C30.2927 36.2177 30.6247 36.2708 30.9458 36.321C31.2723 36.388 31.5989 36.4634 31.9282 36.5499C32.0599 36.5862 32.1834 36.6281 32.3069 36.6671C32.3069 36.6671 32.5127 36.7341 32.5621 36.7481C32.6746 36.7844 32.7899 36.8207 32.9051 36.8709C32.9765 36.9016 33.0533 36.9295 33.1274 36.9602C33.0835 36.9156 33.0423 36.8709 32.9984 36.8234L32.8996 36.7174C32.8475 36.6588 32.7926 36.6001 32.7377 36.5443L32.6554 36.4606C32.5923 36.3964 32.5292 36.3322 32.4661 36.268C32.3508 36.1507 32.2328 36.0251 32.1175 35.8995L31.9337 35.7013C31.7526 35.5227 31.5687 35.3329 31.3903 35.1375C31.3217 35.0649 31.2559 34.9895 31.1873 34.9114L31.1241 34.8388L31.0308 34.7439C30.9705 34.6825 30.9101 34.6211 30.8497 34.5569C30.6686 34.3671 30.4875 34.1661 30.3064 33.9567L30.1198 33.7502C29.8179 33.4124 29.5051 33.0635 29.2169 32.6532L28.83 32.1033L29.4859 32.2149C29.7383 32.2596 30.0018 32.321 30.3366 32.4187L30.4107 32.441C30.6604 32.5164 30.9156 32.5946 31.1626 32.7006C31.4507 32.8234 31.7032 32.9379 31.9337 33.0523C32.0599 33.111 32.1861 33.1779 32.3151 33.2449L32.4029 33.2952C32.499 33.351 32.595 33.4068 32.6883 33.4655C32.9271 33.6106 33.1631 33.7613 33.3991 33.9177C33.6488 34.0935 33.8903 34.2861 34.0824 34.4396C34.1592 34.501 34.2361 34.5625 34.3129 34.6267L34.4117 34.7076C34.4885 34.7718 34.5571 34.8388 34.6257 34.903L34.73 35.0007C34.837 35.1012 34.9413 35.2017 35.0428 35.3022C35.5368 34.8388 36.1981 34.5764 36.8732 34.5764C37.0159 34.5764 37.1559 34.5876 37.2958 34.6099L38.3029 34.7746C38.7996 34.8555 39.3073 34.8974 39.8122 34.8974C41.928 34.8974 44.0136 34.1773 45.682 32.8709L51.3213 28.4578L41.3188 24.7369C40.9648 24.6057 40.6904 24.321 40.5641 23.9609L38.6981 18.5876L32.9545 14.7048C32.6033 14.4676 32.392 14.0684 32.392 13.6385V9.01605L30.7372 12.5555C30.5287 12.9993 30.0841 13.2868 29.6011 13.2868C29.5078 13.2868 29.4145 13.2756 29.324 13.2561C28.7449 13.1221 28.3415 12.6085 28.3415 12.0056V3.86602L28.1165 4.04187C25.6879 5.92324 23.7533 8.4187 22.5211 11.2575L22.1562 12.0977C21.9558 12.5611 21.503 12.8625 21.0036 12.8625C16.7529 12.8625 12.7546 15.1654 10.5647 18.8751L10.1586 19.5646C10.4522 19.3803 10.7376 19.2128 11.0203 19.0537C11.6432 18.7104 12.3786 18.3224 13.2678 18.0349L13.7398 17.8814L13.619 18.3699C13.5669 18.5764 13.4955 18.7802 13.383 19.0314C13.3034 19.2128 13.2101 19.4027 13.0839 19.6232C12.8726 19.9916 12.6284 20.3461 12.3567 20.6811C11.8435 21.3119 11.2233 21.8842 10.5153 22.3838C9.82381 22.8723 9.06367 23.2491 8.25414 23.5087C8.07577 23.5618 7.91112 23.6064 7.7547 23.6427L3.03745 31.6539L37.1778 49.0161Z" fill="#67E813"/>
<path d="M53.7009 28.0921C53.5857 27.3217 53.0643 26.6769 52.3453 26.4089L42.5348 22.7578L40.6825 17.4236C40.6112 17.2198 40.4767 17.0439 40.2983 16.9239L34.6453 13.1026V3.34122C34.6453 2.87228 34.327 2.46753 33.8769 2.36425C33.4269 2.26097 32.9686 2.48707 32.771 2.91136L30.5949 7.56732V1.28121C30.5949 0.901586 30.3836 0.552667 30.0461 0.382395C29.7113 0.212123 29.3106 0.251202 29.0115 0.482884L26.764 2.22189C25.6499 3.08442 24.6291 4.06697 23.7152 5.13885L23.9348 4.65595C24.3245 3.79621 24.7361 2.95323 25.1861 1.993C24.6812 2.15211 24.2257 2.4145 23.8031 2.71875C23.3805 3.0258 23.0018 3.38309 22.6532 3.7683C21.959 4.5415 21.4101 5.42636 20.9875 6.36146C20.5677 7.29935 20.2658 8.28749 20.1259 9.32029C20.0737 9.74178 20.0435 10.1689 20.06 10.6071C18.3998 10.7215 16.7862 11.1263 15.2879 11.7906C14.9119 11.88 14.5387 11.986 14.171 12.1061C13.8828 12.2065 13.6002 12.3126 13.3148 12.4215C13.0349 12.5387 12.7605 12.6699 12.4833 12.7983C11.3939 13.3398 10.3538 14.0014 9.44825 14.8276C8.98448 15.2212 8.57011 15.679 8.1722 16.1451C7.96913 16.374 7.79625 16.6308 7.62337 16.8876C7.45048 17.1444 7.28858 17.4068 7.14314 17.6832C7.43676 17.5715 7.71392 17.4431 7.98285 17.3119C8.25453 17.1835 8.50425 17.0356 8.77592 16.9155C8.96802 16.8234 9.15462 16.7285 9.34122 16.6308C9.09699 16.9714 8.86648 17.3259 8.65244 17.6887L6.68211 21.0272C6.4763 21.2868 6.27323 21.5464 6.06742 21.8004C5.80123 22.1298 5.53504 22.4592 5.25514 22.7718C4.97798 23.0872 4.69258 23.3915 4.377 23.679C4.06142 23.9693 3.71291 24.2345 3.2711 24.4801C3.67175 24.6504 4.12728 24.6699 4.56909 24.6085L0.414403 31.665C0.27445 31.9051 0.236031 32.1926 0.312868 32.4606C0.389705 32.7285 0.573565 32.9518 0.817798 33.0774L37.2715 51.6176C37.4115 51.6901 37.5624 51.7236 37.7106 51.7236C38.0399 51.7236 38.3582 51.5562 38.5448 51.2547C38.5805 51.1989 38.6134 51.1402 38.6463 51.0816C38.7149 51.0258 38.7835 50.9728 38.8494 50.9141C39.036 50.755 39.2116 50.5848 39.379 50.4061C39.7138 50.0516 40.0157 49.6664 40.2874 49.2589C40.828 48.441 41.2368 47.5255 41.4811 46.5624C41.536 46.3196 41.5908 46.0795 41.6265 45.8339C41.6677 45.591 41.6869 45.3426 41.7088 45.097C41.7335 44.6029 41.7198 44.1116 41.6567 43.6287C41.5222 42.6629 41.2039 41.7418 40.699 40.9546C40.6798 41.8981 40.6249 42.7774 40.4712 43.6148C40.3916 44.0335 40.2956 44.4382 40.1803 44.8346C40.1227 45.0077 40.0733 45.1779 40.0102 45.3482C39.9032 43.813 39.4394 42.2973 38.6161 40.9183L36.4318 37.27C36.4482 37.1416 36.5141 37.0551 36.5608 37.0077C36.6211 36.9435 36.7556 36.843 36.9559 36.8765L37.963 37.0412C41.171 37.5631 44.4887 36.709 47.0627 34.6936L52.9051 30.1214C53.5116 29.6385 53.8162 28.8625 53.7009 28.0921ZM51.7031 28.5248L45.8608 33.097C43.7148 34.7774 40.9487 35.492 38.2731 35.0565L37.266 34.8918C36.4949 34.7662 35.7073 35.0286 35.1585 35.5952C35.1228 35.6315 35.0899 35.6678 35.0597 35.7041C34.895 35.5394 34.7276 35.3775 34.5602 35.2156C34.456 35.1207 34.3572 35.023 34.2502 34.9309C34.1404 34.8416 34.0334 34.7523 33.9236 34.6657C33.7041 34.4927 33.4873 34.3196 33.2595 34.1577C33.0262 34.0042 32.793 33.8534 32.5543 33.7083C32.4363 33.6357 32.3155 33.5659 32.1948 33.4961C32.0713 33.4319 31.9478 33.3677 31.8216 33.3091C31.5718 33.1863 31.3166 33.0719 31.0614 32.963C30.8062 32.8541 30.5345 32.776 30.2656 32.6922C29.9967 32.6141 29.725 32.5443 29.4451 32.494C29.7826 32.9742 30.1558 33.3705 30.5153 33.7753C30.6937 33.979 30.8721 34.18 31.0559 34.3698C31.1465 34.4675 31.2398 34.5596 31.3303 34.6546C31.4182 34.7523 31.506 34.8527 31.5938 34.9476C31.7722 35.1402 31.9533 35.3273 32.1371 35.5115C32.3155 35.7013 32.4884 35.8939 32.6695 36.0754C32.7573 36.1675 32.8506 36.2596 32.9412 36.3489C33.029 36.441 33.1168 36.5387 33.2019 36.6308C33.3775 36.8178 33.5559 36.9993 33.7342 37.1835C33.9373 37.4012 34.1404 37.619 34.3407 37.8367C34.2831 37.8032 34.2227 37.7697 34.1623 37.7362L33.715 37.5129C33.4187 37.3594 33.1058 37.2505 32.7985 37.1249C32.6476 37.0607 32.4856 37.016 32.3292 36.963C32.1728 36.9128 32.0164 36.8597 31.8572 36.8151C31.5389 36.7313 31.2206 36.6587 30.8995 36.5917C30.5757 36.5387 30.2519 36.4885 29.9281 36.4578C29.6015 36.4326 29.2722 36.4187 28.9402 36.4271C30.0241 37.2031 31.0943 37.8367 32.1042 38.5289L32.4802 38.7885L32.6695 38.9142L32.8534 39.0481L33.2211 39.3077L33.5778 39.5757C33.8221 39.7488 34.0443 39.9386 34.2803 40.1172L34.6179 40.3991L34.788 40.5387L34.9499 40.6867C35.8335 41.4543 36.6129 42.3056 37.3072 43.2575C37.4718 43.4864 37.631 43.7208 37.7819 43.9637C38.2649 45.7585 38.1085 47.6762 37.3017 49.3845L2.65091 31.7683L7.59044 23.3943C7.79076 23.3524 7.9856 23.2994 8.18318 23.2407C8.96802 22.9895 9.70895 22.6211 10.3703 22.1521C11.0344 21.6832 11.6408 21.1361 12.1568 20.4996C12.4147 20.1814 12.6507 19.8409 12.8565 19.478C12.9581 19.2966 13.0568 19.1095 13.1419 18.9114C13.227 18.716 13.3066 18.5122 13.3615 18.2945C12.53 18.5652 11.8384 18.9225 11.1634 19.2938C10.5816 19.6204 10.0328 19.9693 9.50039 20.3321C9.62662 20.0809 9.74462 19.8269 9.85439 19.5673C9.85713 19.5562 9.86262 19.5478 9.86536 19.5366L10.3429 18.7271C12.5794 14.9365 16.6682 12.5806 21.015 12.5806C21.4046 12.5806 21.7586 12.3461 21.9151 11.9832L22.28 11.143C23.5314 8.25958 25.4962 5.72503 27.9605 3.81575L28.6273 3.29935V12.0028C28.6273 12.4717 28.9457 12.8765 29.3957 12.9797C29.8457 13.083 30.304 12.8569 30.5016 12.4326L32.6777 7.77667V13.6385C32.6777 13.9735 32.8424 14.2861 33.1168 14.4731L38.9372 18.4089L40.8334 23.8716C40.9322 24.1535 41.149 24.3768 41.4234 24.4773L51.6675 28.2903C51.6867 28.2987 51.7416 28.3182 51.7525 28.3964C51.7663 28.4773 51.7224 28.5108 51.7031 28.5248Z" fill="#67E813"/>
<path d="M36.912 23.3385C36.8763 23.3413 36.8406 23.3413 36.8049 23.3413H36.7528C36.3357 23.3301 35.9927 23.1821 35.7347 22.9002C35.2215 22.3336 35.2627 21.432 35.2655 21.3957L35.2737 21.2254L35.4274 21.1556C35.4411 21.15 35.7731 21.0021 36.2396 21.0021C36.7967 21.0021 37.3208 21.2087 37.7572 21.6022L37.7983 21.6385L39.0963 24.3182L36.912 23.3385Z" fill="#67E813"/>
<path d="M35.5399 21.4096C35.5399 21.4096 35.4521 23.0314 36.7583 23.0621C36.8406 23.0649 36.9147 23.0621 36.9806 23.0537L36.9751 23.0621L38.5145 23.7516L37.5733 21.8088C36.6019 20.9323 35.5399 21.4096 35.5399 21.4096Z" fill="#67E813"/>
</svg>
