<svg width="18" height="24" viewBox="0 0 18 24" fill="none" xmlns="http://www.w3.org/2000/svg">
<path d="M15.75 0C16.375 0 16.9062 0.21875 17.3438 0.65625C17.7812 1.09375 18 1.625 18 2.25V21.75C18 22.375 17.7812 22.9062 17.3438 23.3438C16.9062 23.7812 16.375 24 15.75 24H2.25C1.625 24 1.09375 23.7812 0.65625 23.3438C0.21875 22.9062 0 22.375 0 21.75V2.25C0 1.625 0.21875 1.09375 0.65625 0.65625C1.09375 0.21875 1.625 0 2.25 0H15.75ZM15.75 21.75V2.25H2.25V21.75H15.75ZM6.75 5.25C6.53125 5.25 6.34375 5.1875 6.1875 5.0625C6.0625 4.90625 6 4.71875 6 4.5C6 4.28125 6.0625 4.10938 6.1875 3.98438C6.34375 3.82813 6.53125 3.75 6.75 3.75H11.25C11.4688 3.75 11.6406 3.82813 11.7656 3.98438C11.9219 4.10938 12 4.28125 12 4.5C12 4.71875 11.9219 4.90625 11.7656 5.0625C11.6406 5.1875 11.4688 5.25 11.25 5.25H6.75ZM11.1094 12.6094C10.5156 13.2031 9.8125 13.5 9 13.5C8.1875 13.5 7.48438 13.2031 6.89062 12.6094C6.29688 12.0156 6 11.3125 6 10.5C6 9.6875 6.29688 8.98438 6.89062 8.39062C7.48438 7.79688 8.1875 7.5 9 7.5C9.8125 7.5 10.5156 7.79688 11.1094 8.39062C11.7031 8.98438 12 9.6875 12 10.5C12 11.3125 11.7031 12.0156 11.1094 12.6094ZM4.78125 19.5C4.5 19.5 4.25 19.4219 4.03125 19.2656C3.84375 19.0781 3.75 18.8594 3.75 18.6094V17.7188C3.75 16.9688 4.04688 16.3281 4.64062 15.7969C5.26562 15.2656 6.01562 15 6.89062 15C7.01562 15 7.28125 15.0625 7.6875 15.1875C8.09375 15.3125 8.53125 15.375 9 15.375C9.46875 15.375 9.90625 15.3125 10.3125 15.1875C10.7188 15.0625 10.9844 15 11.1094 15C11.9844 15 12.7188 15.2656 13.3125 15.7969C13.9375 16.3281 14.25 16.9688 14.25 17.7188V18.6094C14.25 18.8594 14.1406 19.0781 13.9219 19.2656C13.7344 19.4219 13.5 19.5 13.2188 19.5H4.78125Z" fill="white"/>
</svg>
