<svg width="23" height="21" viewBox="0 0 23 21" fill="none" xmlns="http://www.w3.org/2000/svg">
<path d="M11.2891 4.875C10.638 4.875 9.94792 5.00521 9.21875 5.26562C8.69792 4.84896 8.32031 4.3151 8.08594 3.66406C9.10156 3.22135 10.1693 3 11.2891 3C12.4089 3 13.4766 3.22135 14.4922 3.66406C14.2578 4.3151 13.8802 4.84896 13.3594 5.26562C12.6302 5.00521 11.9401 4.875 11.2891 4.875ZM6.44531 17.6484C5.48177 16.9453 4.71354 16.0729 4.14062 15.0312C3.56771 13.9896 3.24219 12.8568 3.16406 11.6328C3.45052 11.5547 3.75 11.5156 4.0625 11.5156C4.375 11.5156 4.71354 11.5807 5.07812 11.7109C5.23438 13.4557 6.0026 14.875 7.38281 15.9688C7.22656 16.6198 6.91406 17.1797 6.44531 17.6484ZM15.1953 15.9688C16.5495 14.875 17.3047 13.4557 17.4609 11.7109C17.8516 11.5807 18.2031 11.5156 18.5156 11.5156C18.8021 11.5156 19.0885 11.5547 19.375 11.6328C19.2969 12.8568 18.9714 13.9896 18.3984 15.0312C17.8255 16.0729 17.0703 16.9453 16.1328 17.6484C15.6641 17.1797 15.3516 16.6198 15.1953 15.9688ZM19.6094 7.96094C21.0156 8.79427 21.9792 10.0052 22.5 11.5938C22.5781 11.75 22.5391 11.8802 22.3828 11.9844C22.2266 12.0625 22.0964 12.0365 21.9922 11.9062C21.6276 11.4896 21.25 11.1641 20.8594 10.9297C19.7396 10.2526 18.5547 10.0964 17.3047 10.4609C16.0547 10.7995 15.1042 11.5417 14.4531 12.6875C13.8021 13.8333 13.6458 15.0443 13.9844 16.3203C14.3229 17.5964 15.0521 18.5729 16.1719 19.25C16.5625 19.4844 17.0182 19.6536 17.5391 19.7578C17.7214 19.7839 17.8125 19.888 17.8125 20.0703C17.8125 20.2526 17.7214 20.3568 17.5391 20.3828C15.9505 20.6953 14.4531 20.4349 13.0469 19.6016C12.3958 19.2109 11.8099 18.6901 11.2891 18.0391C10.7682 18.6901 10.1823 19.2109 9.53125 19.6016C8.125 20.4349 6.61458 20.6953 5 20.3828C4.84375 20.3568 4.76562 20.2526 4.76562 20.0703C4.76562 19.888 4.84375 19.7839 5 19.7578C5.54688 19.6276 6.01562 19.4583 6.40625 19.25C7.52604 18.5729 8.25521 17.5964 8.59375 16.3203C8.93229 15.0443 8.77604 13.8333 8.125 12.6875C7.47396 11.5417 6.52344 10.7995 5.27344 10.4609C4.02344 10.0964 2.83854 10.2526 1.71875 10.9297C1.32812 11.138 0.950521 11.4635 0.585938 11.9062C0.481771 12.0365 0.351562 12.0625 0.195312 11.9844C0.0390625 11.8802 -0.0130208 11.75 0.0390625 11.5938C0.585938 10.0052 1.5625 8.79427 2.96875 7.96094C3.59375 7.59635 4.3099 7.33594 5.11719 7.17969C4.85677 6.42448 4.72656 5.69531 4.72656 4.99219C4.72656 3.35156 5.26042 1.89323 6.32812 0.617188C6.43229 0.486979 6.5625 0.460938 6.71875 0.539062C6.875 0.617188 6.92708 0.747396 6.875 0.929688C6.69271 1.45052 6.60156 1.94531 6.60156 2.41406C6.60156 3.74219 7.05729 4.875 7.96875 5.8125C8.88021 6.75 9.98698 7.21875 11.2891 7.21875C12.1484 7.21875 12.9297 7.01042 13.6328 6.59375C14.362 6.15104 14.9349 5.5651 15.3516 4.83594C15.7682 4.10677 15.9766 3.29948 15.9766 2.41406C15.9766 1.94531 15.8854 1.45052 15.7031 0.929688C15.651 0.747396 15.7031 0.617188 15.8594 0.539062C16.0156 0.460938 16.1458 0.486979 16.25 0.617188C17.3177 1.86719 17.8516 3.32552 17.8516 4.99219C17.8516 5.69531 17.7214 6.42448 17.4609 7.17969C18.2682 7.33594 18.9844 7.59635 19.6094 7.96094ZM9.96094 12.4531C10.3255 12.8177 10.7682 13 11.2891 13C11.8099 13 12.2526 12.8177 12.6172 12.4531C12.9818 12.0885 13.1641 11.6458 13.1641 11.125C13.1641 10.6042 12.9818 10.1615 12.6172 9.79688C12.2526 9.43229 11.8099 9.25 11.2891 9.25C10.7682 9.25 10.3255 9.43229 9.96094 9.79688C9.59635 10.1615 9.41406 10.6042 9.41406 11.125C9.41406 11.6458 9.59635 12.0885 9.96094 12.4531Z" fill="white"/>
</svg>
